<?xml version="1.0" encoding="UTF-8" standalone="no"?>
<!DOCTYPE svg PUBLIC "-//W3C//DTD SVG 1.1//EN" "http://www.w3.org/Graphics/SVG/1.1/DTD/svg11.dtd">
<svg width="100%" height="100%" viewBox="0 0 600 600" version="1.1" xmlns="http://www.w3.org/2000/svg" xmlns:xlink="http://www.w3.org/1999/xlink" xml:space="preserve" xmlns:serif="http://www.serif.com/" style="fill-rule:evenodd;clip-rule:evenodd;stroke-linejoin:round;stroke-miterlimit:2;">
    <g transform="matrix(0.884685,0.884685,-1.18527,1.18527,369.591,41.0961)">
        <g transform="matrix(2.091e-15,3.6122,-3.62006,1.66927e-15,350.177,-63.4894)">
            <rect x="53.17" y="90.885" width="6.455" height="23.128" style="fill:rgb(255,174,0);fill-opacity:0.75;"/>
        </g>
        <g transform="matrix(4.83948,-2.02457e-15,1.05847e-15,10.9435,-12.0081,-982.579)">
            <rect x="53.17" y="90.885" width="6.455" height="23.128" style="fill:rgb(255,174,0);fill-opacity:0.75;"/>
        </g>
        <g transform="matrix(4.83948,-1.27538e-15,1.05847e-15,6.89385,-63.3545,-614.529)">
            <rect x="53.17" y="90.885" width="6.455" height="23.128" style="fill:rgb(255,174,0);fill-opacity:0.75;"/>
        </g>
        <g transform="matrix(4.83948,-6.36185e-16,1.05847e-15,3.43878,-63.3545,-126.939)">
            <rect x="53.17" y="90.885" width="6.455" height="23.128" style="fill:rgb(255,174,0);fill-opacity:0.75;"/>
        </g>
        <g transform="matrix(9.56591e-16,3.73732,-3.56891,9.86173e-16,549.561,42.29)">
            <rect x="53.17" y="90.885" width="6.455" height="23.128" style="fill:rgb(255,174,0);fill-opacity:0.75;"/>
        </g>
        <g transform="matrix(9.56591e-16,3.73732,-3.56891,9.86173e-16,549.561,-13.1164)">
            <rect x="53.17" y="90.885" width="6.455" height="23.128" style="fill:rgb(255,174,0);fill-opacity:0.75;"/>
        </g>
        <g transform="matrix(-4.83948,9.51665e-16,-1.48086e-15,-2.68647,456.864,453.882)">
            <rect x="53.17" y="90.885" width="6.455" height="23.128" style="fill:rgb(255,174,0);fill-opacity:0.75;"/>
        </g>
        <g transform="matrix(9.56591e-16,3.73732,-3.56891,9.86173e-16,549.561,-51.3765)">
            <rect x="53.17" y="90.885" width="6.455" height="23.128" style="fill:rgb(255,174,0);fill-opacity:0.75;"/>
        </g>
        <g transform="matrix(4.83948,-9.72317e-16,1.05847e-15,5.25569,-114.656,-428.184)">
            <rect x="53.17" y="90.885" width="6.455" height="23.128" style="fill:rgb(255,174,0);fill-opacity:0.75;"/>
        </g>
        <g transform="matrix(-7.82702e-16,-3.6122,5.83253,-5.23475e-16,-491.087,264.858)">
            <rect x="53.17" y="90.885" width="6.455" height="23.128" style="fill:rgb(255,174,0);fill-opacity:0.75;"/>
        </g>
        <g transform="matrix(4.83948,-3.65586e-16,1.05847e-15,1.97611,-218.31,-130.119)">
            <rect x="53.17" y="90.885" width="6.455" height="23.128" style="fill:rgb(255,174,0);fill-opacity:0.75;"/>
        </g>
        <g transform="matrix(4.83948,-6.36185e-16,1.05847e-15,3.43878,-114.656,-126.939)">
            <rect x="53.17" y="90.885" width="6.455" height="23.128" style="fill:rgb(255,174,0);fill-opacity:0.75;"/>
        </g>
        <g transform="matrix(-1.98653e-15,-3.6122,5.78012,-1.56253e-15,-536.483,324.802)">
            <rect x="53.17" y="90.885" width="6.455" height="23.128" style="fill:rgb(255,174,0);fill-opacity:0.75;"/>
        </g>
        <g transform="matrix(5.00711,-1.91166e-15,1.97683e-15,3.63601,-176.022,-243.519)">
            <rect x="53.17" y="90.885" width="6.455" height="23.128" style="fill:rgb(255,174,0);fill-opacity:0.75;"/>
        </g>
        <g transform="matrix(5.00711,-1.40053e-15,1.97683e-15,2.66384,-277.382,-132.679)">
            <rect x="53.17" y="90.885" width="6.455" height="23.128" style="fill:rgb(255,174,0);fill-opacity:0.75;"/>
        </g>
        <g transform="matrix(-1.98653e-15,-3.6122,5.78012,-1.56253e-15,-536.483,363.093)">
            <rect x="53.17" y="90.885" width="6.455" height="23.128" style="fill:rgb(255,174,0);fill-opacity:0.75;"/>
        </g>
        <g transform="matrix(4.83948,-6.39669e-16,1.05847e-15,3.45762,-165.883,-129.087)">
            <rect x="53.17" y="90.885" width="6.455" height="23.128" style="fill:rgb(255,174,0);fill-opacity:0.75;"/>
        </g>
        <g transform="matrix(4.83948,-6.39669e-16,1.05847e-15,3.45762,-217.355,-129.087)">
            <rect x="53.17" y="90.885" width="6.455" height="23.128" style="fill:rgb(255,174,0);fill-opacity:0.75;"/>
        </g>
        <g transform="matrix(2.17058e-15,3.6122,-10.1309,1.25307e-15,1094.65,-180.039)">
            <rect x="53.17" y="90.885" width="6.455" height="23.128" style="fill:rgb(255,174,0);fill-opacity:0.75;"/>
        </g>
        <g transform="matrix(4.83948,-6.39669e-16,1.05847e-15,3.45762,-268.602,-129.087)">
            <rect x="53.17" y="90.885" width="6.455" height="23.128" style="fill:rgb(255,174,0);fill-opacity:0.75;"/>
        </g>
        <g transform="matrix(4.83948,-6.6599e-16,1.05847e-15,3.59989,-268.469,-315.156)">
            <rect x="53.17" y="90.885" width="6.455" height="23.128" style="fill:rgb(255,174,0);fill-opacity:0.75;"/>
        </g>
        <g transform="matrix(4.83948,-2.02463e-15,1.05847e-15,10.9438,-319.871,-982.608)">
            <rect x="53.17" y="90.885" width="6.455" height="23.128" style="fill:rgb(255,174,0);fill-opacity:0.75;"/>
        </g>
        <g transform="matrix(1.77407e-15,3.73732,-8.00885,1.19261e-15,850.558,42.29)">
            <rect x="53.17" y="90.885" width="6.455" height="23.128" style="fill:rgb(255,174,0);fill-opacity:0.75;"/>
        </g>
    </g>
</svg>
